<svg width="220" height="17" viewBox="0 0 220 17" fill="none" xmlns="http://www.w3.org/2000/svg">
<path d="M10.774 14.63C10.102 14.63 9.57933 14.5273 9.206 14.322C8.83267 14.1167 8.56667 13.7993 8.408 13.37C8.25867 12.9313 8.184 12.348 8.184 11.62V6.23L4.684 14H4.404L0.764 6.09V14H0.204V4.76H1.534L4.894 12.04L8.184 4.76H9.444V11.62C9.444 12.488 9.55133 13.16 9.766 13.636C9.99 14.112 10.326 14.35 10.774 14.35V14.63ZM13.4295 14.14C13.1308 14.14 12.8275 14.0793 12.5195 13.958C12.2115 13.8273 11.9455 13.6173 11.7215 13.328C11.5068 13.0387 11.3995 12.656 11.3995 12.18C11.3995 11.4707 11.7262 10.9667 12.3795 10.668C13.0422 10.3693 13.9055 10.22 14.9695 10.22H15.3895C15.3895 9.30533 15.2635 8.68 15.0115 8.344C14.7595 8.008 14.3955 7.84 13.9195 7.84C13.4995 7.84 13.1635 7.92867 12.9115 8.106C12.6595 8.28333 12.4822 8.59133 12.3795 9.03H11.7495C11.7495 8.71267 11.7682 8.46533 11.8055 8.288C11.8428 8.10133 11.9408 7.92867 12.0995 7.77C12.2675 7.602 12.5428 7.48067 12.9255 7.406C13.3175 7.322 13.7422 7.28 14.1995 7.28C14.9555 7.28 15.5528 7.48533 15.9915 7.896C16.4302 8.29733 16.6495 9.072 16.6495 10.22V14H15.9495L15.4595 13.37H15.3895C15.2215 13.5847 14.9742 13.7667 14.6475 13.916C14.3208 14.0653 13.9148 14.14 13.4295 14.14ZM14.0595 13.51C14.3675 13.51 14.6242 13.4353 14.8295 13.286C15.0348 13.1367 15.2215 12.9313 15.3895 12.67V10.78H14.9695C14.2788 10.78 13.7328 10.9107 13.3315 11.172C12.9302 11.424 12.7295 11.76 12.7295 12.18C12.7295 12.6093 12.8555 12.9407 13.1075 13.174C13.3688 13.398 13.6862 13.51 14.0595 13.51ZM20.7718 14.14C19.9598 14.14 19.3344 13.818 18.8958 13.174C18.4664 12.53 18.2518 11.7087 18.2518 10.71C18.2518 9.71133 18.4758 8.89 18.9238 8.246C19.3811 7.602 20.0438 7.28 20.9118 7.28C21.2664 7.28 21.5791 7.31733 21.8498 7.392C22.1204 7.46667 22.3911 7.56933 22.6618 7.7V6.44C22.6618 5.964 22.5964 5.614 22.4658 5.39C22.3351 5.15667 22.0738 5.04 21.6818 5.04H21.4018V4.76H22.6618C23.0071 4.76 23.2638 4.80667 23.4318 4.9C23.6091 4.984 23.7351 5.14267 23.8098 5.376C23.8844 5.60933 23.9218 5.964 23.9218 6.44V14H23.2218L22.7318 13.37H22.6618C22.4564 13.6033 22.2138 13.79 21.9338 13.93C21.6631 14.07 21.2758 14.14 20.7718 14.14ZM21.1917 13.58C21.5744 13.58 21.8638 13.51 22.0598 13.37C22.2558 13.23 22.4564 13.02 22.6618 12.74V8.26C22.3818 8.12933 22.1391 8.02667 21.9338 7.952C21.7284 7.87733 21.5278 7.84 21.3318 7.84C20.7344 7.84 20.2911 8.10133 20.0018 8.624C19.7218 9.14667 19.5818 9.842 19.5818 10.71C19.5818 11.5687 19.7171 12.264 19.9878 12.796C20.2584 13.3187 20.6598 13.58 21.1917 13.58ZM28.5055 14.14C27.8709 14.14 27.3342 13.9907 26.8955 13.692C26.4569 13.384 26.1255 12.9733 25.9015 12.46C25.6775 11.9373 25.5655 11.354 25.5655 10.71C25.5655 10.0753 25.6775 9.49667 25.9015 8.974C26.1255 8.45133 26.4475 8.04067 26.8675 7.742C27.2969 7.434 27.7962 7.28 28.3655 7.28C29.3082 7.28 30.0082 7.546 30.4655 8.078C30.9322 8.60067 31.1655 9.36133 31.1655 10.36L31.1375 10.92H26.8955C26.8955 11.704 27.0635 12.3433 27.3995 12.838C27.7355 13.3327 28.1975 13.58 28.7855 13.58C29.2242 13.58 29.5929 13.4867 29.8915 13.3C30.1995 13.1133 30.4842 12.8333 30.7455 12.46L31.0255 12.67C30.7175 13.1833 30.3582 13.5567 29.9475 13.79C29.5369 14.0233 29.0562 14.14 28.5055 14.14ZM29.8355 10.36C29.8355 9.53867 29.7142 8.91333 29.4715 8.484C29.2289 8.05467 28.8602 7.84 28.3655 7.84C28.0855 7.84 27.8335 7.952 27.6095 8.176C27.3855 8.39067 27.2082 8.68933 27.0775 9.072C26.9562 9.45467 26.8955 9.884 26.8955 10.36H29.8355ZM36.6715 9.03C36.4568 8.50733 36.2422 8.14333 36.0275 7.938C35.8222 7.72333 35.5468 7.60667 35.2015 7.588V7.308C35.2482 7.308 35.3182 7.30333 35.4115 7.294C35.5048 7.28467 35.5982 7.28 35.6915 7.28C36.1955 7.28 36.6388 7.41067 37.0215 7.672C37.4135 7.924 37.7402 8.37667 38.0015 9.03L39.1915 11.97L40.3815 8.96C40.1575 8.46533 39.9428 8.12 39.7375 7.924C39.5415 7.71867 39.2895 7.60667 38.9815 7.588V7.308C39.0282 7.308 39.0982 7.30333 39.1915 7.294C39.2848 7.28467 39.3782 7.28 39.4715 7.28C39.9755 7.28 40.4188 7.41067 40.8015 7.672C41.1935 7.924 41.5202 8.37667 41.7815 9.03L42.9715 11.97L44.7915 7.42H45.4915L42.7615 14.14H42.4815L40.7315 9.8L38.9815 14.14H38.7015L36.6715 9.03ZM47.5078 6.58C47.2931 6.58 47.1065 6.49133 46.9478 6.314C46.7985 6.13667 46.7238 5.92667 46.7238 5.684C46.7238 5.488 46.7798 5.334 46.8918 5.222C47.0131 5.11 47.1718 5.054 47.3678 5.054C47.5825 5.054 47.7645 5.14267 47.9138 5.32C48.0725 5.49733 48.1518 5.70733 48.1518 5.95C48.1518 6.146 48.0911 6.3 47.9698 6.412C47.8578 6.524 47.7038 6.58 47.5078 6.58ZM46.9758 9.1C46.9758 8.624 46.9105 8.274 46.7798 8.05C46.6491 7.81667 46.3878 7.7 45.9958 7.7H45.7158V7.42H46.9758C47.3211 7.42 47.5778 7.46667 47.7458 7.56C47.9231 7.644 48.0491 7.80267 48.1238 8.036C48.1985 8.26933 48.2358 8.624 48.2358 9.1V14H46.9758V9.1ZM52.1571 14.14C51.6345 14.14 51.2238 13.9907 50.9251 13.692C50.6265 13.3933 50.4771 12.936 50.4771 12.32V7.98H49.4971V7.42H50.4771V6.16L51.1771 5.32H51.7371V7.42H53.4171V7.98H51.7371V12.32C51.7371 13.16 52.0638 13.58 52.7171 13.58C52.9411 13.58 53.1278 13.5567 53.2771 13.51C53.4358 13.4633 53.5991 13.3933 53.7671 13.3L53.9071 13.58C53.6925 13.7387 53.4545 13.874 53.1931 13.986C52.9318 14.0887 52.5865 14.14 52.1571 14.14ZM54.9416 6.44C54.9416 5.964 54.8763 5.614 54.7456 5.39C54.6149 5.15667 54.3536 5.04 53.9616 5.04H53.6816V4.76H54.9416C55.2869 4.76 55.5436 4.80667 55.7116 4.9C55.8889 4.984 56.0149 5.14267 56.0896 5.376C56.1643 5.60933 56.2016 5.964 56.2016 6.44V7.98C56.3976 7.784 56.6496 7.62067 56.9576 7.49C57.2749 7.35 57.6296 7.28 58.0216 7.28C58.7216 7.28 59.2909 7.46667 59.7296 7.84C60.1776 8.21333 60.4016 8.86667 60.4016 9.8V14H59.1416V9.8C59.1416 9.14667 58.9923 8.67067 58.6936 8.372C58.4043 8.064 58.0403 7.91 57.6016 7.91C57.1069 7.91 56.6403 8.15733 56.2016 8.652V14H54.9416V6.44ZM64.8438 14.98H78.8438V0.98H64.8438V14.98ZM86.5018 14.14C86.0258 14.14 85.6338 14.0653 85.3258 13.916C85.0178 13.7667 84.7798 13.5847 84.6118 13.37H84.5418L84.0518 14H83.3518V6.44C83.3518 5.964 83.2864 5.614 83.1558 5.39C83.0251 5.15667 82.7638 5.04 82.3718 5.04H82.0917V4.76H83.3518C83.6971 4.76 83.9538 4.80667 84.1218 4.9C84.2991 4.984 84.4251 5.14267 84.4998 5.376C84.5744 5.60933 84.6118 5.964 84.6118 6.44V7.7C84.8824 7.56933 85.1531 7.46667 85.4238 7.392C85.6944 7.31733 86.0071 7.28 86.3618 7.28C87.2298 7.28 87.8878 7.602 88.3358 8.246C88.7931 8.89 89.0218 9.71133 89.0218 10.71C89.0218 11.6993 88.8024 12.5207 88.3638 13.174C87.9251 13.818 87.3044 14.14 86.5018 14.14ZM86.0818 13.58C86.6138 13.58 87.0151 13.3187 87.2858 12.796C87.5564 12.264 87.6918 11.5687 87.6918 10.71C87.6918 9.842 87.5471 9.14667 87.2578 8.624C86.9778 8.10133 86.5391 7.84 85.9417 7.84C85.7458 7.84 85.5451 7.87733 85.3398 7.952C85.1344 8.02667 84.8918 8.12933 84.6118 8.26V12.74C84.7798 12.992 84.9758 13.1973 85.1998 13.356C85.4331 13.5053 85.7271 13.58 86.0818 13.58ZM90.9368 16.38C91.3941 16.38 91.7675 16.2727 92.0568 16.058C92.3555 15.8527 92.6121 15.47 92.8268 14.91L93.1068 14.14L90.8668 8.68C90.6055 8.008 90.0921 7.63467 89.3268 7.56V7.28H90.5168C91.3288 7.28 91.8888 7.65333 92.1968 8.4L93.7928 12.278L95.5568 7.42H96.2568L93.5268 14.91C93.2561 15.6473 92.9575 16.1467 92.6308 16.408C92.3041 16.6693 91.8795 16.8 91.3568 16.8H90.9368V16.38ZM102.734 14.14C102.436 14.14 102.132 14.0793 101.824 13.958C101.516 13.8273 101.25 13.6173 101.026 13.328C100.812 13.0387 100.704 12.656 100.704 12.18C100.704 11.4707 101.031 10.9667 101.684 10.668C102.347 10.3693 103.21 10.22 104.274 10.22H104.694C104.694 9.30533 104.568 8.68 104.316 8.344C104.064 8.008 103.7 7.84 103.224 7.84C102.804 7.84 102.468 7.92867 102.216 8.106C101.964 8.28333 101.787 8.59133 101.684 9.03H101.054C101.054 8.71267 101.073 8.46533 101.11 8.288C101.148 8.10133 101.246 7.92867 101.404 7.77C101.572 7.602 101.848 7.48067 102.23 7.406C102.622 7.322 103.047 7.28 103.504 7.28C104.26 7.28 104.858 7.48533 105.296 7.896C105.735 8.29733 105.954 9.072 105.954 10.22V14H105.254L104.764 13.37H104.694C104.526 13.5847 104.279 13.7667 103.952 13.916C103.626 14.0653 103.22 14.14 102.734 14.14ZM103.364 13.51C103.672 13.51 103.929 13.4353 104.134 13.286C104.34 13.1367 104.526 12.9313 104.694 12.67V10.78H104.274C103.584 10.78 103.038 10.9107 102.636 11.172C102.235 11.424 102.034 11.76 102.034 12.18C102.034 12.6093 102.16 12.9407 102.412 13.174C102.674 13.398 102.991 13.51 103.364 13.51ZM108.116 9.1C108.116 8.624 108.051 8.274 107.92 8.05C107.79 7.81667 107.528 7.7 107.136 7.7H106.856V7.42H108.116C108.462 7.42 108.723 7.46667 108.9 7.56C109.087 7.65333 109.222 7.79333 109.306 7.98H109.376C109.572 7.784 109.824 7.62067 110.132 7.49C110.45 7.35 110.804 7.28 111.196 7.28C111.896 7.28 112.466 7.46667 112.904 7.84C113.352 8.21333 113.576 8.86667 113.576 9.8V14H112.316V9.8C112.316 9.14667 112.167 8.67067 111.868 8.372C111.579 8.064 111.215 7.91 110.776 7.91C110.282 7.91 109.815 8.15733 109.376 8.652V14H108.116V9.1ZM126.722 14.07C126.274 14.07 125.83 13.9487 125.392 13.706C124.953 13.454 124.603 12.9687 124.342 12.25L123.992 11.34H120.072L118.952 14H118.322L122.242 4.76H122.662L125.742 12.25C125.975 12.7913 126.194 13.1647 126.4 13.37C126.605 13.566 126.899 13.6827 127.282 13.72V14C127.114 14.0467 126.927 14.07 126.722 14.07ZM123.712 10.78L122.032 6.72L120.282 10.78H123.712ZM130.61 14.14C129.938 14.14 129.369 13.9907 128.902 13.692C128.445 13.384 128.1 12.9733 127.866 12.46C127.642 11.9373 127.53 11.354 127.53 10.71C127.53 10.066 127.642 9.48733 127.866 8.974C128.1 8.45133 128.445 8.04067 128.902 7.742C129.369 7.434 129.938 7.28 130.61 7.28C131.637 7.28 132.314 7.44333 132.64 7.77C132.799 7.92867 132.897 8.12467 132.934 8.358C132.972 8.582 132.99 8.99267 132.99 9.59H132.71C132.673 9.01133 132.491 8.57733 132.164 8.288C131.838 7.98933 131.413 7.84 130.89 7.84C130.218 7.84 129.71 8.106 129.364 8.638C129.028 9.17 128.86 9.86067 128.86 10.71C128.86 11.5593 129.028 12.25 129.364 12.782C129.71 13.314 130.218 13.58 130.89 13.58C131.366 13.58 131.758 13.4913 132.066 13.314C132.374 13.1273 132.659 12.8427 132.92 12.46L133.2 12.67C132.892 13.1927 132.528 13.5707 132.108 13.804C131.688 14.028 131.189 14.14 130.61 14.14ZM137.378 14.14C136.706 14.14 136.137 13.9907 135.67 13.692C135.213 13.384 134.867 12.9733 134.634 12.46C134.41 11.9373 134.298 11.354 134.298 10.71C134.298 10.066 134.41 9.48733 134.634 8.974C134.867 8.45133 135.213 8.04067 135.67 7.742C136.137 7.434 136.706 7.28 137.378 7.28C138.405 7.28 139.081 7.44333 139.408 7.77C139.567 7.92867 139.665 8.12467 139.702 8.358C139.739 8.582 139.758 8.99267 139.758 9.59H139.478C139.441 9.01133 139.259 8.57733 138.932 8.288C138.605 7.98933 138.181 7.84 137.658 7.84C136.986 7.84 136.477 8.106 136.132 8.638C135.796 9.17 135.628 9.86067 135.628 10.71C135.628 11.5593 135.796 12.25 136.132 12.782C136.477 13.314 136.986 13.58 137.658 13.58C138.134 13.58 138.526 13.4913 138.834 13.314C139.142 13.1273 139.427 12.8427 139.688 12.46L139.968 12.67C139.66 13.1927 139.296 13.5707 138.876 13.804C138.456 14.028 137.957 14.14 137.378 14.14ZM142.186 6.58C141.971 6.58 141.784 6.49133 141.626 6.314C141.476 6.13667 141.402 5.92667 141.402 5.684C141.402 5.488 141.458 5.334 141.57 5.222C141.691 5.11 141.85 5.054 142.046 5.054C142.26 5.054 142.442 5.14267 142.592 5.32C142.75 5.49733 142.83 5.70733 142.83 5.95C142.83 6.146 142.769 6.3 142.648 6.412C142.536 6.524 142.382 6.58 142.186 6.58ZM141.654 9.1C141.654 8.624 141.588 8.274 141.458 8.05C141.327 7.81667 141.066 7.7 140.674 7.7H140.394V7.42H141.654C141.999 7.42 142.256 7.46667 142.424 7.56C142.601 7.644 142.727 7.80267 142.802 8.036C142.876 8.26933 142.914 8.624 142.914 9.1V14H141.654V9.1ZM147.591 14.14C146.956 14.14 146.406 13.9907 145.939 13.692C145.472 13.384 145.118 12.9687 144.875 12.446C144.632 11.9233 144.511 11.3447 144.511 10.71C144.511 10.0753 144.632 9.49667 144.875 8.974C145.118 8.45133 145.472 8.04067 145.939 7.742C146.406 7.434 146.956 7.28 147.591 7.28C148.226 7.28 148.776 7.434 149.243 7.742C149.71 8.04067 150.064 8.45133 150.307 8.974C150.55 9.49667 150.671 10.0753 150.671 10.71C150.671 11.3447 150.55 11.9233 150.307 12.446C150.064 12.9687 149.71 13.384 149.243 13.692C148.776 13.9907 148.226 14.14 147.591 14.14ZM147.591 13.58C147.936 13.58 148.24 13.454 148.501 13.202C148.772 12.95 148.977 12.6047 149.117 12.166C149.266 11.7273 149.341 11.242 149.341 10.71C149.341 10.178 149.266 9.69267 149.117 9.254C148.977 8.81533 148.772 8.47 148.501 8.218C148.24 7.966 147.936 7.84 147.591 7.84C147.246 7.84 146.938 7.966 146.667 8.218C146.406 8.47 146.2 8.81533 146.051 9.254C145.911 9.69267 145.841 10.178 145.841 10.71C145.841 11.242 145.911 11.7273 146.051 12.166C146.2 12.6047 146.406 12.95 146.667 13.202C146.938 13.454 147.246 13.58 147.591 13.58ZM151.097 15.638C151.545 15.638 151.876 15.4 152.091 14.924C152.315 14.448 152.427 13.776 152.427 12.908V4.76H153.687V12.908C153.687 13.636 153.607 14.2147 153.449 14.644C153.299 15.0827 153.038 15.4047 152.665 15.61C152.291 15.8153 151.769 15.918 151.097 15.918V15.638ZM158.487 14.14C157.853 14.14 157.302 13.9907 156.835 13.692C156.369 13.384 156.014 12.9687 155.771 12.446C155.529 11.9233 155.407 11.3447 155.407 10.71C155.407 10.0753 155.529 9.49667 155.771 8.974C156.014 8.45133 156.369 8.04067 156.835 7.742C157.302 7.434 157.853 7.28 158.487 7.28C159.122 7.28 159.673 7.434 160.139 7.742C160.606 8.04067 160.961 8.45133 161.203 8.974C161.446 9.49667 161.567 10.0753 161.567 10.71C161.567 11.3447 161.446 11.9233 161.203 12.446C160.961 12.9687 160.606 13.384 160.139 13.692C159.673 13.9907 159.122 14.14 158.487 14.14ZM158.487 13.58C158.833 13.58 159.136 13.454 159.397 13.202C159.668 12.95 159.873 12.6047 160.013 12.166C160.163 11.7273 160.237 11.242 160.237 10.71C160.237 10.178 160.163 9.69267 160.013 9.254C159.873 8.81533 159.668 8.47 159.397 8.218C159.136 7.966 158.833 7.84 158.487 7.84C158.142 7.84 157.834 7.966 157.563 8.218C157.302 8.47 157.097 8.81533 156.947 9.254C156.807 9.69267 156.737 10.178 156.737 10.71C156.737 11.242 156.807 11.7273 156.947 12.166C157.097 12.6047 157.302 12.95 157.563 13.202C157.834 13.454 158.142 13.58 158.487 13.58ZM166.359 14.14C165.883 14.14 165.491 14.0653 165.183 13.916C164.875 13.7667 164.637 13.5847 164.469 13.37H164.399L163.909 14H163.209V6.44C163.209 5.964 163.144 5.614 163.013 5.39C162.883 5.15667 162.621 5.04 162.229 5.04H161.949V4.76H163.209C163.555 4.76 163.811 4.80667 163.979 4.9C164.157 4.984 164.283 5.14267 164.357 5.376C164.432 5.60933 164.469 5.964 164.469 6.44V7.7C164.74 7.56933 165.011 7.46667 165.281 7.392C165.552 7.31733 165.865 7.28 166.219 7.28C167.087 7.28 167.745 7.602 168.193 8.246C168.651 8.89 168.879 9.71133 168.879 10.71C168.879 11.6993 168.66 12.5207 168.221 13.174C167.783 13.818 167.162 14.14 166.359 14.14ZM165.939 13.58C166.471 13.58 166.873 13.3187 167.143 12.796C167.414 12.264 167.549 11.5687 167.549 10.71C167.549 9.842 167.405 9.14667 167.115 8.624C166.835 8.10133 166.397 7.84 165.799 7.84C165.603 7.84 165.403 7.87733 165.197 7.952C164.992 8.02667 164.749 8.12933 164.469 8.26V12.74C164.637 12.992 164.833 13.1973 165.057 13.356C165.291 13.5053 165.585 13.58 165.939 13.58ZM176.977 14.238C176.464 14.238 175.96 14.168 175.465 14.028C174.971 13.888 174.565 13.6873 174.247 13.426C173.939 13.1647 173.785 12.866 173.785 12.53V11.032H174.037C174.196 11.9653 174.504 12.642 174.961 13.062C175.419 13.4727 176.049 13.678 176.851 13.678C177.355 13.678 177.785 13.552 178.139 13.3C178.503 13.048 178.685 12.698 178.685 12.25C178.685 11.858 178.564 11.5173 178.321 11.228C178.079 10.9387 177.687 10.6353 177.145 10.318L175.423 9.296C174.826 8.94133 174.401 8.582 174.149 8.218C173.907 7.854 173.785 7.41067 173.785 6.888C173.785 6.16933 174.033 5.59533 174.527 5.166C175.031 4.72733 175.689 4.508 176.501 4.508C176.977 4.508 177.449 4.578 177.915 4.718C178.382 4.84867 178.765 5.04467 179.063 5.306C179.371 5.558 179.525 5.852 179.525 6.188V7.686H179.273C179.115 6.75267 178.811 6.08533 178.363 5.684C177.925 5.27333 177.304 5.068 176.501 5.068C176.072 5.068 175.694 5.19867 175.367 5.46C175.041 5.72133 174.877 6.062 174.877 6.482C174.877 6.86467 174.994 7.182 175.227 7.434C175.47 7.686 175.871 7.98 176.431 8.316L178.153 9.338C178.788 9.72067 179.236 10.0753 179.497 10.402C179.759 10.7287 179.889 11.144 179.889 11.648C179.889 12.432 179.628 13.062 179.105 13.538C178.583 14.0047 177.873 14.238 176.977 14.238ZM183.448 14.14C182.925 14.14 182.515 13.9907 182.216 13.692C181.917 13.3933 181.768 12.936 181.768 12.32V7.98H180.788V7.42H181.768V6.16L182.468 5.32H183.028V7.42H184.708V7.98H183.028V12.32C183.028 13.16 183.355 13.58 184.008 13.58C184.232 13.58 184.419 13.5567 184.568 13.51C184.727 13.4633 184.89 13.3933 185.058 13.3L185.198 13.58C184.983 13.7387 184.745 13.874 184.484 13.986C184.223 14.0887 183.877 14.14 183.448 14.14ZM188.627 14.14C187.927 14.14 187.353 13.9533 186.905 13.58C186.466 13.2067 186.247 12.5533 186.247 11.62V9.1C186.247 8.624 186.181 8.274 186.051 8.05C185.92 7.81667 185.659 7.7 185.267 7.7H185.127V7.42H186.247C186.592 7.42 186.849 7.46667 187.017 7.56C187.194 7.644 187.32 7.80267 187.395 8.036C187.469 8.26933 187.507 8.624 187.507 9.1V11.62C187.507 12.2733 187.651 12.754 187.941 13.062C188.239 13.3607 188.608 13.51 189.047 13.51C189.541 13.51 190.008 13.2627 190.447 12.768V7.42H191.707V14H191.007L190.517 13.44H190.447C190.251 13.636 189.994 13.804 189.677 13.944C189.369 14.0747 189.019 14.14 188.627 14.14ZM195.895 14.14C195.083 14.14 194.457 13.818 194.019 13.174C193.589 12.53 193.375 11.7087 193.375 10.71C193.375 9.71133 193.599 8.89 194.047 8.246C194.504 7.602 195.167 7.28 196.035 7.28C196.389 7.28 196.702 7.31733 196.973 7.392C197.243 7.46667 197.514 7.56933 197.785 7.7V6.44C197.785 5.964 197.719 5.614 197.589 5.39C197.458 5.15667 197.197 5.04 196.805 5.04H196.525V4.76H197.785C198.13 4.76 198.387 4.80667 198.555 4.9C198.732 4.984 198.858 5.14267 198.933 5.376C199.007 5.60933 199.045 5.964 199.045 6.44V14H198.345L197.855 13.37H197.785C197.579 13.6033 197.337 13.79 197.057 13.93C196.786 14.07 196.399 14.14 195.895 14.14ZM196.315 13.58C196.697 13.58 196.987 13.51 197.183 13.37C197.379 13.23 197.579 13.02 197.785 12.74V8.26C197.505 8.12933 197.262 8.02667 197.057 7.952C196.851 7.87733 196.651 7.84 196.455 7.84C195.857 7.84 195.414 8.10133 195.125 8.624C194.845 9.14667 194.705 9.842 194.705 10.71C194.705 11.5687 194.84 12.264 195.111 12.796C195.381 13.3187 195.783 13.58 196.315 13.58ZM203.629 14.14C202.994 14.14 202.457 13.9907 202.019 13.692C201.58 13.384 201.249 12.9733 201.025 12.46C200.801 11.9373 200.689 11.354 200.689 10.71C200.689 10.0753 200.801 9.49667 201.025 8.974C201.249 8.45133 201.571 8.04067 201.991 7.742C202.42 7.434 202.919 7.28 203.489 7.28C204.431 7.28 205.131 7.546 205.589 8.078C206.055 8.60067 206.289 9.36133 206.289 10.36L206.261 10.92H202.019C202.019 11.704 202.187 12.3433 202.523 12.838C202.859 13.3327 203.321 13.58 203.909 13.58C204.347 13.58 204.716 13.4867 205.015 13.3C205.323 13.1133 205.607 12.8333 205.869 12.46L206.149 12.67C205.841 13.1833 205.481 13.5567 205.071 13.79C204.66 14.0233 204.179 14.14 203.629 14.14ZM204.959 10.36C204.959 9.53867 204.837 8.91333 204.595 8.484C204.352 8.05467 203.983 7.84 203.489 7.84C203.209 7.84 202.957 7.952 202.733 8.176C202.509 8.39067 202.331 8.68933 202.201 9.072C202.079 9.45467 202.019 9.884 202.019 10.36H204.959ZM208.113 9.1C208.113 8.624 208.047 8.274 207.917 8.05C207.786 7.81667 207.525 7.7 207.133 7.7H206.853V7.42H208.113C208.458 7.42 208.719 7.46667 208.897 7.56C209.083 7.65333 209.219 7.79333 209.303 7.98H209.373C209.569 7.784 209.821 7.62067 210.129 7.49C210.446 7.35 210.801 7.28 211.193 7.28C211.893 7.28 212.462 7.46667 212.901 7.84C213.349 8.21333 213.573 8.86667 213.573 9.8V14H212.313V9.8C212.313 9.14667 212.163 8.67067 211.865 8.372C211.575 8.064 211.211 7.91 210.773 7.91C210.278 7.91 209.811 8.15733 209.373 8.652V14H208.113V9.1ZM217.464 14.14C216.941 14.14 216.53 13.9907 216.232 13.692C215.933 13.3933 215.784 12.936 215.784 12.32V7.98H214.804V7.42H215.784V6.16L216.484 5.32H217.044V7.42H218.724V7.98H217.044V12.32C217.044 13.16 217.37 13.58 218.024 13.58C218.248 13.58 218.434 13.5567 218.584 13.51C218.742 13.4633 218.906 13.3933 219.074 13.3L219.214 13.58C218.999 13.7387 218.761 13.874 218.5 13.986C218.238 14.0887 217.893 14.14 217.464 14.14Z" fill="#525252"/>
</svg>
